<?xml version="1.0" encoding="UTF-8"?>
<svg xmlns="http://www.w3.org/2000/svg" xmlns:xlink="http://www.w3.org/1999/xlink" viewBox="0 0 64 64" width="64px" height="64px">
<defs>
<linearGradient id="linear0" gradientUnits="userSpaceOnUse" x1="32.144001" y1="23" x2="32.144001" y2="43.165001" >
<stop offset="0" style="stop-color:rgb(73.333335%,65.882355%,50.588238%);stop-opacity:1;"/>
<stop offset="1" style="stop-color:rgb(60.392159%,53.333336%,40.000001%);stop-opacity:1;"/>
</linearGradient>
</defs>
<g id="surface62080870">
<path style=" stroke:none;fill-rule:nonzero;fill:url(#linear0);" d="M 13.964844 25.871094 L 16.921875 25.871094 L 16.921875 26.441406 L 13.964844 26.441406 L 13.964844 26.472656 L 11.964844 26.472656 L 11.964844 23 L 16.902344 23 L 16.902344 23.570312 L 13.964844 23.570312 Z M 1.910156 23 L 1 23 L 1 26.472656 L 3 26.472656 L 3 26.441406 L 6.117188 26.441406 L 6.117188 25.871094 L 3 25.871094 L 3 24.957031 L 4.441406 24.957031 L 4.441406 24.386719 L 3 24.386719 L 3 23.570312 L 6.117188 23.570312 L 6.117188 23 Z M 22.089844 23 L 22.355469 23 L 22.355469 26.472656 L 20.355469 26.472656 L 20.355469 26.105469 L 19.339844 26.105469 L 19.339844 26.457031 L 17.339844 26.457031 L 17.339844 23.953125 L 18.195312 23 Z M 20.355469 25.214844 L 20.355469 23.570312 L 19.339844 23.570312 L 19.339844 25.214844 Z M 27.066406 23 L 27.910156 23 L 27.910156 25.117188 L 25.910156 25.117188 L 25.910156 25.101562 L 24.828125 25.101562 L 24.828125 26.472656 L 22.828125 26.472656 L 22.828125 23 Z M 25.910156 24.53125 L 25.910156 23.570312 L 24.828125 23.570312 L 24.828125 24.53125 Z M 48.738281 25.230469 L 49.613281 26.472656 L 47.496094 26.472656 L 46.484375 25.210938 L 46.484375 26.472656 L 44.484375 26.472656 L 44.484375 23 L 49.5625 23 L 49.5625 25.230469 Z M 46.484375 23.570312 L 46.484375 24.285156 L 47.5625 24.285156 L 47.5625 23.570312 Z M 62.78125 23 L 60.738281 23 L 59.367188 24.84375 L 57.996094 23 L 55.503906 23 L 55.503906 26.472656 L 57.542969 26.472656 L 57.542969 25.515625 L 58.148438 26.472656 L 60.585938 26.472656 L 61.164062 25.558594 L 61.164062 26.472656 L 63.203125 26.472656 L 63.203125 23 Z M 54.289062 23 L 55.0625 23 L 55.0625 25.503906 L 54.289062 26.363281 L 54.289062 26.457031 L 49.988281 26.457031 L 49.988281 23.953125 L 50.847656 23 Z M 53.0625 25.886719 L 53.0625 23.570312 L 51.988281 23.570312 L 51.988281 25.886719 Z M 9.488281 24.53125 L 8.535156 24.53125 L 8.535156 23.570312 L 11.464844 23.570312 L 11.464844 23 L 7.253906 23 L 7.253906 23.136719 L 6.535156 23.839844 L 6.535156 25.101562 L 9.488281 25.101562 L 9.488281 25.871094 L 6.535156 25.871094 L 6.535156 26.441406 L 9.488281 26.441406 L 9.488281 26.457031 L 10.632812 26.457031 L 11.488281 25.6875 L 11.488281 24.53125 Z M 29.246094 23 L 28.335938 23 L 28.335938 26.472656 L 30.335938 26.472656 L 30.335938 26.441406 L 33.453125 26.441406 L 33.453125 25.871094 L 30.335938 25.871094 L 30.335938 24.957031 L 31.777344 24.957031 L 31.777344 24.386719 L 30.335938 24.386719 L 30.335938 23.570312 L 33.453125 23.570312 L 33.453125 23 Z M 39.855469 23 L 38.945312 23 L 38.945312 26.472656 L 40.945312 26.472656 L 40.945312 24.957031 L 42.386719 24.957031 L 42.386719 24.386719 L 40.945312 24.386719 L 40.945312 23.570312 L 44.0625 23.570312 L 44.0625 23 Z M 23.191406 42.128906 L 23.199219 42.015625 L 23.183594 42.015625 Z M 23.328125 40.019531 L 23.382812 39.226562 L 23.328125 39.226562 Z M 29.71875 41.3125 L 29.820312 41.296875 L 29.636719 40.851562 Z M 23.511719 42.191406 L 23.789062 39.226562 L 23.386719 39.226562 Z M 24.117188 41.808594 L 24.226562 39.226562 L 23.871094 39.226562 Z M 24.902344 39.226562 L 24.25 39.226562 L 24.300781 42.613281 L 24.347656 43.140625 L 24.394531 43.140625 L 24.5 41.871094 L 24.734375 43.140625 L 25.109375 43.140625 L 25.171875 42.675781 L 24.902344 42.675781 Z M 25.273438 41.9375 L 25.296875 41.777344 L 25.316406 43.140625 L 25.5 43.140625 L 25.628906 42.382812 L 25.628906 39.226562 L 25.273438 39.226562 Z M 33.699219 43.140625 L 33.777344 43.140625 L 33.753906 42.621094 Z M 34.074219 43.140625 L 34.28125 43.140625 L 34.171875 42.015625 Z M 34.753906 43.140625 L 34.789062 43.140625 L 34.777344 42.941406 Z M 30.054688 43.117188 L 30.097656 42.789062 L 29.992188 42.78125 Z M 30.4375 42.988281 L 30.464844 42.808594 L 30.433594 42.808594 Z M 30.882812 43.140625 L 31.027344 43.140625 L 31.203125 42.894531 L 31.207031 42.855469 L 30.878906 42.835938 Z M 31.625 27.191406 L 31.691406 29.25 L 31.691406 37.402344 L 29.828125 37.402344 L 30.640625 40.363281 L 30.40625 40.808594 L 30.402344 40.59375 L 30.363281 40.894531 L 30.277344 41.058594 L 28.265625 36.792969 L 28.695312 35.792969 L 27.761719 36.4375 L 27.332031 38.066406 L 27.59375 38.351562 L 28.101562 37.175781 L 29.601562 40.765625 L 29.554688 41.332031 L 29.402344 41.351562 L 29.289062 40.054688 L 29.042969 43.140625 L 29.011719 43.140625 L 29.058594 40.9375 L 28.890625 40.921875 L 28.839844 39.636719 L 28.804688 40.910156 L 28.21875 40.84375 L 28.199219 43.140625 L 27.976562 43.140625 L 27.910156 42.304688 L 27.933594 41.035156 L 27.8125 41.027344 L 27.726562 39.925781 L 27.675781 41.019531 L 27.574219 41.011719 L 27.609375 42.453125 L 27.578125 43.140625 L 27.457031 43.140625 L 27.183594 39.605469 L 27.128906 42.988281 L 26.496094 40.691406 L 26.480469 40.277344 L 26.453125 40.539062 L 26.09375 39.226562 L 26.417969 39.226562 L 26.417969 39.449219 L 28.503906 39.449219 L 28.503906 38.726562 L 26.417969 38.726562 L 26.417969 38.738281 L 25.960938 38.738281 L 25.628906 37.535156 L 25.628906 38.738281 L 25.277344 38.738281 L 25.277344 38.511719 L 25.582031 38.511719 L 25.582031 38.132812 L 25.375 38.132812 L 25.375 37.945312 L 25.046875 37.945312 L 25.046875 38.132812 L 24.835938 38.132812 L 24.835938 37.808594 L 24.183594 37.808594 L 24.183594 38.269531 L 24.300781 38.269531 L 24.300781 38.738281 L 23.328125 38.738281 L 23.328125 36.375 L 23.109375 36.375 L 23.109375 37.421875 L 22.929688 37.421875 L 22.929688 37.996094 L 23.109375 37.996094 L 23.109375 38.734375 L 22.921875 38.734375 L 22.808594 37.308594 L 22.808594 38.734375 L 22.339844 38.734375 L 22.136719 34.46875 L 22.121094 38.734375 L 21.390625 38.734375 L 21.390625 31.355469 L 23.117188 31.386719 L 23.117188 30.957031 L 21.390625 30.933594 L 21.390625 27.445312 L 21.523438 28.1875 L 21.609375 27.191406 L 21.703125 27.191406 L 21.839844 28.828125 L 21.976562 27.191406 L 22.214844 27.191406 L 22.28125 29.246094 L 22.355469 27.191406 L 30.261719 27.191406 L 30.449219 29.734375 L 30.578125 27.191406 L 30.78125 27.191406 L 30.988281 30.054688 L 31.050781 27.191406 Z M 27.453125 30.191406 L 25.628906 30.191406 L 25.628906 34.371094 L 27.453125 34.371094 Z M 17.203125 31.9375 L 17.398438 31.507812 L 16.925781 31.5 L 17.015625 31.628906 Z M 19.839844 42.796875 L 20.160156 40.753906 L 20.253906 42.636719 L 20.542969 39.988281 L 20.671875 42.796875 L 20.675781 42.734375 L 20.675781 39.226562 L 19.667969 39.226562 Z M 18.785156 42.480469 L 19.328125 42.765625 L 19.433594 39.226562 L 18.566406 39.226562 Z M 15.214844 38.148438 L 15.375 38.472656 L 15.308594 36.160156 Z M 15.929688 42.242188 L 15.867188 42.015625 L 16.035156 39.863281 L 15.652344 39.023438 L 15.375 38.472656 L 15.5 42.765625 L 15.976562 42.511719 Z M -0.00390625 30.191406 L 2.6875 30.191406 L 2.6875 43.140625 L 2.695312 43.140625 L 2.753906 41.199219 L 2.828125 38.710938 L 2.988281 42.734375 L 3.277344 39.128906 L 3.46875 41.296875 L 3.597656 39.765625 L 4.042969 42.191406 L 4.394531 39.671875 L 4.425781 42.0625 L 4.839844 39.574219 L 4.871094 42.414062 L 5.191406 41.96875 L 5.574219 38.171875 L 5.734375 42.414062 L 6.214844 41.363281 L 6.277344 37.5 L 6.628906 42.03125 L 6.820312 37.820312 L 6.925781 39.175781 L 6.925781 30.191406 L 10 30.191406 L 10 27.191406 L -0.00390625 27.191406 Z M 14.863281 39.023438 L 15.007812 39.261719 L 14.910156 39.886719 L 14.570312 40.328125 L 14.480469 40.507812 L 14.367188 40.714844 L 14.574219 42.636719 L 14.671875 40.753906 L 14.988281 42.796875 L 15.214844 38.144531 L 15.078125 37.875 Z M 14.109375 41.191406 L 14.046875 41.429688 L 14.160156 42.796875 L 14.246094 40.941406 Z M 35.027344 43.140625 L 35.132812 43.140625 L 35.0625 42.558594 Z M 20.277344 28.371094 L 20.269531 27.191406 L 19.8125 27.191406 L 19.535156 29.773438 L 19.453125 27.191406 L 18.902344 27.191406 L 18.832031 30.4375 L 18.597656 27.191406 L 18.441406 27.191406 L 18.289062 30.117188 L 18.078125 27.191406 L 12.375 27.191406 L 10.675781 31.753906 L 10.675781 40.859375 L 10.714844 41.808594 L 11 38.777344 L 11.320312 42.191406 L 11.445312 39.191406 L 11.636719 42.128906 L 12.019531 37.308594 L 12.019531 42.128906 L 12.105469 42.070312 C 12.148438 41.582031 12.195312 41.109375 12.253906 40.925781 C 12.28125 40.839844 12.335938 40.730469 12.402344 40.617188 L 12.691406 34.46875 L 12.714844 40.152344 C 12.792969 40.046875 12.863281 39.953125 12.929688 39.871094 C 13.058594 39.664062 13.140625 39.527344 13.140625 39.527344 C 13.140625 39.527344 13.496094 39.074219 13.378906 38.953125 C 13.257812 38.835938 13.113281 38.140625 13.1875 37.804688 C 13.257812 37.46875 13.378906 36.535156 13.304688 36.464844 C 13.234375 36.394531 13.257812 35.242188 13.257812 35.242188 C 13.257812 35.242188 12.515625 34.261719 12.707031 33.761719 C 12.898438 33.257812 13.351562 32.539062 13.351562 32.539062 C 13.351562 32.539062 13.472656 31.390625 13.949219 30.933594 C 14.429688 30.480469 14.859375 30.910156 14.859375 30.910156 L 15.410156 30.265625 C 15.410156 30.265625 14.957031 29.378906 15.746094 29.019531 C 16.535156 28.660156 16.945312 29.570312 16.945312 29.570312 L 17.636719 30 L 16.992188 30.238281 L 17.136719 30.621094 L 16.90625 30.828125 L 17.136719 30.886719 L 17.230469 30.71875 L 17.550781 30.722656 L 17.566406 30.527344 L 17.328125 30.527344 L 17.375 30.167969 L 18.574219 30.144531 L 18.621094 30.738281 L 20.558594 30.765625 L 20.585938 31.027344 L 20.675781 31.050781 L 20.675781 27.191406 L 20.484375 27.191406 Z M 20.511719 31.628906 L 19.378906 31.628906 L 18.882812 32.703125 L 18.023438 33.949219 L 16.96875 33.445312 L 16.824219 33.878906 L 17.257812 33.996094 L 16.898438 35.316406 L 16.371094 35.484375 L 16.417969 36.226562 L 16.824219 36.941406 L 17.039062 37.734375 L 17.445312 38.714844 L 17.6875 38.691406 L 17.636719 40.054688 L 17.46875 40.222656 L 17.65625 43.164062 L 17.761719 43.164062 L 17.796875 41.140625 L 17.953125 43.164062 L 18.09375 43.164062 L 18.113281 39.222656 L 18.464844 42.605469 L 18.492188 39.226562 L 18.414062 39.226562 L 18.414062 38.976562 L 18.1875 38.976562 L 18.1875 38.738281 L 18.492188 38.738281 L 18.496094 38.234375 L 18.53125 38.738281 L 19.445312 38.738281 L 19.519531 36.160156 L 19.644531 38.738281 L 20.675781 38.738281 L 20.675781 31.34375 L 20.605469 31.34375 Z M 22.488281 41.902344 L 22.808594 42.128906 L 22.808594 39.226562 L 22.363281 39.226562 Z M 21.390625 41.710938 L 21.5625 40.308594 L 21.691406 42.542969 L 21.851562 39.925781 L 22.105469 42.128906 L 22.117188 39.226562 L 21.390625 39.226562 Z M 23.109375 41.089844 L 23.109375 39.226562 L 22.960938 39.226562 Z M 17.828125 32.96875 L 18.285156 32.679688 L 18.285156 31.964844 L 18.265625 31.660156 L 17.636719 32.648438 Z M 18.09375 30.527344 L 17.78125 30.503906 L 17.75 30.726562 L 18.246094 30.734375 L 18.238281 30.71875 Z M 42.148438 41.351562 L 41.96875 43.140625 L 42.390625 43.140625 L 42.359375 42.230469 Z M 52.167969 41.933594 L 52.226562 41.773438 L 52.1875 40.789062 Z M 51.550781 43.164062 L 51.722656 43.164062 L 51.765625 43.050781 L 51.753906 41.1875 Z M 54.214844 29.382812 L 54.214844 32.152344 L 54.316406 32.152344 L 54.34375 32.886719 L 54.441406 33.273438 L 54.460938 33.109375 L 54.4375 27.476562 Z M 53.03125 27.191406 L 52.980469 27.191406 L 52.871094 29.617188 L 52.609375 27.191406 L 52.574219 27.191406 L 52.488281 28.851562 L 52.230469 27.191406 L 52.152344 27.191406 L 51.851562 33.445312 L 51.671875 27.191406 L 51.113281 27.191406 L 50.828125 31.371094 L 50.800781 27.191406 L 50.777344 27.191406 L 50.445312 30.382812 L 50.429688 27.191406 L 44.988281 27.191406 L 43.289062 31.753906 L 43.289062 38.042969 L 45.023438 38.042969 L 45.023438 43.164062 L 45.730469 43.164062 L 45.667969 41.683594 L 45.667969 34.8125 L 45.945312 38.328125 L 45.945312 34.753906 L 46.3125 34.753906 L 46.617188 41.167969 L 46.644531 34.753906 L 46.792969 34.753906 L 46.902344 35.710938 L 46.960938 34.753906 L 47.15625 34.753906 L 47.191406 35.328125 L 47.261719 34.753906 L 47.285156 34.753906 L 47.285156 30.214844 L 49.296875 30.214844 L 49.296875 37.363281 L 49.371094 34.753906 L 49.738281 34.753906 L 49.738281 42.867188 L 49.714844 42.714844 L 49.691406 43.164062 L 50.671875 43.164062 L 50.671875 38.160156 L 51.9375 38.160156 L 51.9375 35.164062 L 51.996094 35.71875 L 52.074219 32.152344 L 52.15625 32.152344 L 52.546875 36.027344 L 52.519531 32.164062 L 52.523438 32.152344 L 53.039062 32.152344 L 53.230469 35.339844 L 53.292969 34.554688 L 53.292969 30.167969 L 53.285156 30.222656 Z M 48.738281 43.164062 L 49.066406 43.164062 L 48.914062 41.347656 Z M 49.273438 43.164062 L 49.460938 43.164062 L 49.328125 41.953125 Z M 51.171875 43.164062 L 51.394531 43.164062 L 51.371094 40.195312 Z M 59.128906 43.117188 L 58.9375 40.945312 L 58.761719 43.140625 L 59.542969 43.140625 L 59.253906 41.585938 Z M 36.019531 43.140625 L 36.273438 43.140625 L 36.019531 39.941406 Z M 59.824219 43.140625 L 60.074219 43.140625 L 60.054688 41.488281 Z M 60.054688 27.222656 L 60.054688 32.367188 L 59.253906 35.253906 L 58.453125 32.367188 L 58.453125 27.222656 L 56.628906 27.222656 L 56.574219 30.828125 L 56.445312 27.796875 L 56.160156 30.828125 L 55.839844 27.414062 L 55.714844 30.414062 L 55.523438 27.480469 L 55.140625 32.296875 L 55.140625 27.480469 L 54.820312 27.703125 L 54.609375 32.152344 L 54.851562 32.152344 L 55.175781 33.699219 L 55.265625 32.167969 L 55.507812 34.332031 L 55.628906 32.152344 L 55.648438 32.152344 L 55.648438 38.136719 L 56.007812 39.578125 L 56.007812 38.160156 L 56.070312 38.160156 L 56.230469 40.480469 L 56.253906 40.574219 L 56.347656 38.160156 L 56.441406 38.160156 L 56.695312 41.691406 L 56.703125 38.160156 L 57.328125 38.160156 L 57.761719 42.757812 L 57.734375 43.140625 L 57.949219 43.140625 L 57.929688 40.246094 L 57.816406 41.898438 L 57.757812 38.164062 L 57.984375 38.164062 L 58.1875 39.070312 L 58.175781 38.164062 L 58.332031 38.164062 L 58.617188 39.808594 L 58.585938 38.164062 L 58.738281 38.164062 L 59.070312 40.386719 L 59.144531 38.164062 L 59.378906 38.164062 L 59.617188 39.425781 L 59.605469 38.164062 L 59.722656 38.164062 L 59.929688 39.789062 L 60.039062 37.574219 L 60.359375 42.21875 L 60.207031 43.140625 L 60.53125 43.140625 L 60.4375 37.773438 L 60.742188 37.527344 L 61.03125 41.988281 L 60.914062 43.140625 L 61.351562 43.140625 L 61.234375 39.988281 L 61.0625 41.667969 L 61.125 37.503906 L 61.507812 40.421875 L 61.441406 37.421875 L 61.917969 40.421875 L 61.890625 42.015625 L 62.085938 41.238281 L 62 40.132812 L 62.070312 37.761719 L 62.335938 40.234375 L 62.359375 40.128906 L 62.21875 37.277344 L 62.230469 37.277344 L 62.230469 30.664062 L 62.398438 29.59375 L 62.421875 29.59375 L 62.734375 36.128906 L 62.921875 29.59375 L 63.0625 29.59375 L 63.46875 29.808594 L 63.753906 34.050781 L 63.785156 29.679688 L 64.132812 33.003906 L 64.140625 32.976562 L 64.15625 29.589844 L 64.289062 29.589844 L 64.289062 27.222656 Z M 62.476562 39.65625 L 62.480469 39.652344 L 62.480469 39.640625 Z M 58.117188 43.140625 L 58.324219 43.140625 L 58.3125 41.234375 Z M 48.257812 43.164062 L 48.417969 43.164062 L 48.308594 42.269531 Z M 58.414062 43.019531 L 58.410156 43.140625 L 58.59375 43.140625 L 58.488281 40.53125 Z M 56.707031 42.390625 L 56.894531 43.140625 L 57.054688 43.140625 L 56.910156 38.171875 Z M 40.878906 43.140625 L 41.117188 43.140625 L 41.09375 41.585938 Z M 40.175781 43.140625 L 40.566406 43.140625 L 40.296875 41.679688 Z M 39.457031 43.117188 L 39.457031 43.140625 L 39.632812 43.140625 L 39.53125 40.628906 Z M 39.8125 43.140625 L 40.164062 43.140625 L 39.980469 41.042969 Z M 36.511719 43.140625 L 36.652344 43.140625 L 36.597656 41.824219 Z M 37.386719 43.140625 L 37.484375 43.140625 L 37.457031 41.410156 Z M 36.882812 43.140625 L 37.207031 43.140625 L 37.042969 41.410156 Z M 46.402344 43.164062 L 46.621094 43.164062 L 46.488281 41.152344 Z M 47.0625 43.164062 L 47.0625 39.269531 L 46.753906 43.164062 Z M 41.265625 43.140625 L 41.5625 43.140625 L 41.542969 41.488281 Z M 47.871094 43.164062 L 48.097656 43.164062 L 48.019531 41.886719 Z M 47.558594 40.148438 L 47.417969 43.164062 L 47.761719 43.164062 L 47.75 40.148438 Z M 45.8125 43.164062 L 46.269531 43.164062 L 46.042969 40.738281 Z M 36.671875 30.160156 L 36.671875 27.222656 L 34.5 27.222656 L 34.441406 28.863281 L 34.386719 27.222656 L 34.101562 27.222656 L 34 28.445312 L 33.898438 27.222656 L 33.734375 27.222656 L 33.683594 27.804688 L 33.578125 27.222656 L 32.980469 27.222656 L 32.886719 27.894531 L 32.878906 27.222656 L 32.570312 27.222656 L 32.4375 27.988281 L 32.433594 27.304688 L 32.433594 39.660156 L 32.710938 39.660156 L 32.621094 42.722656 L 32.636719 42.957031 L 32.78125 39.792969 L 32.777344 39.660156 L 32.789062 39.660156 L 32.828125 38.742188 L 32.902344 39.660156 L 33.832031 39.660156 L 33.882812 36.707031 L 34.351562 36.707031 L 34.425781 39.660156 L 35.339844 39.660156 L 35.324219 43.140625 L 35.636719 43.140625 L 35.445312 39.128906 L 35.445312 38.535156 L 36.367188 38.535156 L 36.441406 34.792969 L 37.050781 34.792969 L 37.15625 38.535156 L 38.796875 38.535156 L 38.796875 40.378906 L 39.730469 40.378906 L 39.730469 38.800781 L 40.6875 38.800781 L 40.6875 38.042969 L 41.359375 38.042969 L 40.058594 32.578125 L 42.414062 27.191406 L 37.96875 27.191406 Z M 43.363281 43.164062 L 43.789062 43.164062 L 43.519531 39.734375 Z M 43.363281 43.164062 "/>
</g>
</svg>
